<svg enable-background="new 0 0 74.074 74.074" height="50.853539" viewBox="0 0 45.049116 50.85354" width="45.049114" xmlns="http://www.w3.org/2000/svg"><g clip-rule="evenodd" fill-rule="evenodd" transform="translate(-15.962989 -6.34005)"><path d="m53.931 27.514c6.034 9.439 5.373 12.687-4.718 23.239-3.216.224-6.098 3.462-9.607 1.078-.941-5.391 2.891-8.881 5.929-13.644-7.278-1.61-14.54-2.373-19.342-8.278-2.781-2.227-4.365-4.589-2.706-8.492 1.261-2.966 1.758-6.293 2.387-9.51l-.018.036c4.563-4.088 9.287-5.029 14.388-.881 1.407 1.142 3.146 1.584 4.972 1.835 9.218 1.266 10.431 3.049 8.576 12.449-.155.776-.251 1.466.139 2.168z" fill="#37508f"/><path d="m25.873 11.907c.062 3.526.861 7.211-1.204 10.406-2.486 3.845 2.463 4.287 2.867 6.758 2.632 4.129 5.579 7.88 9.946 10.445 2.841 1.664 4.419 4.271 3.022 7.803-2.572 2.104-5.094.764-6.839-.863-4.695-4.375-10.592-6.975-15.459-11.045-.502-.548-.971-1.126-1.412-1.724 1.044-8.087 5.831-14.611 9.079-21.78z" fill="#3f5b99"/><path d="m53.931 27.514c-1.769-1.123-.715-2.516-.582-3.987.47-5.178.369-10.037-7.304-8.49-1.887.38-4.284.673-5.718-1.165-4.25-5.452-9.151-5.025-14.473-1.929 2.938-3.114 18.628-6.855 21.807-5.195 7.335 3.828 9.169 9.893 6.27 20.766z" fill="#3f5b99"/><path d="m16.792 33.687c.486 0 .972.012 1.458.03.857 1.589 2.379 2.765 2.944 4.515 2 6.184 6.335 9.088 12.711 9.319 2.07.077 4.128.411 5.606 2.147.145.346.288.692.43 1.039 3.087 2.667 6.184-1.274 9.271.016-3.957 2.759-7.996 4.504-12.659 1.439-1.473-.965-3-.8-3.908.915-3.347 6.34-7.287 2.725-9.611-.227-4.302-5.457-9.013-11.244-6.242-19.193z" fill="#648bc3"/><path d="m58.372 46.974c1.777.387 2.651 1.525 2.64 3.201-.014 1.923-1.315 2.559-3.021 2.438-1.741-.121-2.859-1.034-2.601-2.896.232-1.664 1.284-2.644 2.982-2.743z" fill="#5172ad"/><path d="m17.779 56.158c-.179-1.224.483-1.579 1.221-1.4.593.144 1.361.628 1.544 1.142.274.774-.328 1.457-1.193 1.259-.616-.144-1.134-.707-1.572-1.001z" fill="#648bc3"/><path d="m39.923 47.656c.296-3.146-.778-6.106-3.697-6.974-6.018-1.792-7.242-6.672-8.691-11.611 4.588 3.993 9.65 6.692 16.002 6.236 2.087-.148 4.362.075 4.983 2.587.562 2.276-1.485 3.03-3.017 3.894-3.502 1.979-2.98 6.423-5.563 8.949l-.039.031c-.828-1.041-.947-2.08.022-3.112z" fill="#355387"/><path d="m39.923 47.656c-.007 1.038-.013 2.075-.021 3.112-1.438-.508-2.843-1.297-4.321-1.481-13.671-1.718-13.676-1.686-17.331-15.57 7.225 4.644 14.448 9.292 21.673 13.939z" fill="#5172ad"/></g><path d="m27.678011 47.76195v-15.44h5.183l.774-6.017h-5.957v-3.843c0-1.742.483-2.928 2.982-2.928l3.186-.001v-5.383c-.552-.072-2.443-.236-4.644-.236-4.594 0-7.739 2.803-7.739 7.953v4.438h-5.195v6.017h5.195v15.439h6.215z" fill="#fff"/></svg>