<svg enable-background="new 0 0 132.704 118.665" height="92.823753" viewBox="0 0 61.525839 92.823753" width="61.525837" xmlns="http://www.w3.org/2000/svg"><g fill="#e6b54a" transform="translate(-31.250368 -12.960122)"><path d="m86.402 38.721c-.021.185.251.198.306.042.344-.987.228-2.433-.832-2.938-.067-.032-.123.06-.059.101.928.605.693 1.867.585 2.795z"/><path d="m89.52 39.433-.059-2.846c-.002-.075-.115-.075-.117 0l-.059 2.846c-.001.15.237.15.235 0z"/><path d="m72.899 53.859c-.754-.981-1.438-1.939-1.924-3.083-.036-.083-.166-.022-.143.06.71 2.536 2.494 5.407 4.956 6.55.198.092.391-.137.236-.306-1.016-1.117-2.195-2.013-3.125-3.221z"/><path d="m70.431 53.086c.122-.273-.19-.557-.428-.331-1.065 1.018-.805 2.322-.251 3.56.385.861 1.088 1.642 1.668 2.377.594.751 1.208 1.62 2.224 1.765.267.038.507-.104.519-.395.051-1.347-1.297-2.377-2.076-3.336-.704-.865-2.135-2.558-1.656-3.64z"/><path d="m52.412 26.687c.076 0 .076-.117 0-.117s-.076.117 0 .117z"/><path d="m59.525 43.36c.202.007.37-.174.37-.37 0-.208-.168-.363-.37-.37-.011-.001-.018-.001-.025-.001-.016-.006-.072-.023-.069-.021-.054-.026-.087-.05-.118-.078-.087-.08-.115-.141-.136-.262-.036-.199-.274-.308-.456-.259-.208.058-.293.257-.258.456.088.502.562.887 1.062.905z"/><path d="m63.962 40.546c.104-.67.413-1.278 1.026-1.606.287-.154.032-.591-.256-.438-.749.401-1.208 1.144-1.115 1.997.021.181.312.259.345.047z"/><path d="m64.458 44.955c-.167.068-.167.271 0 .339.116.046.261.035.388.043.123.006.247.014.37.021.302.018.302-.485 0-.467-.123.007-.247.014-.37.021-.127.007-.271-.005-.388.043z"/><path d="m59.397 47.039c-.498.223-1.004.007-1.126-.539-.036-.162-.313-.175-.338 0-.148 1.04.915 1.363 1.72.977.297-.143.038-.569-.256-.438z"/><path d="m61.696 38.142c.188-.052.23-.244.317-.396.07.117.129.241.189.362.112.225.448.027.336-.196-.095-.191-.251-.657-.537-.629-.138.013-.22.107-.292.216-.097.146-.25.37-.182.547.028.07.092.117.169.096z"/><path d="m64.977 50.112c-.143.701-.258 1.41-.209 2.125.039.587.83.566.896 0 .079-.679.268-1.37.445-2.049.22-.035.395-.147.516-.345.122-.04.241-.086.359-.134.049.281.168.517.215.791.025.149.275.149.301 0 .07-.412.246-.829.344-1.249.787-.53 1.42-1.298 1.791-2.308.064-.177-.189-.254-.285-.121-.33.464-.682.883-1.055 1.25.008-.035.016-.069.02-.104.021-.179-.176-.268-.32-.244-.535.087-.815.649-.949 1.121-.02.072-.036.147-.05.222-.063.035-.125.07-.188.103.004-.172-.019-.346-.056-.52-.023-.112-.202-.112-.225 0-.05.236-.069.453-.086.686-.044.018-.089.032-.133.049.126-.538.44-1.451-.103-1.848-.041-.029-.096-.044-.152-.051.035-.021.068-.052.094-.101.178-.347.393-.675.555-1.03.137-.3.132-.596.088-.917-.021-.153-.271-.145-.301 0-.124.619-.496 1.141-.781 1.692-.085.167.025.324.162.37-.029.009-.059.021-.081.037-.028.021-.056.043-.083.065-.002.001-.004.005-.007.006-.037.033-.07.066-.094.104-.327.422-.386 1.235-.491 1.744-.016.067-.03.135-.043.203-.178.015-.357.022-.543.017.051-.061.1-.123.146-.185.116-.159-.109-.373-.267-.267-.188.125-.372.261-.561.395-.117-.017-.235-.034-.357-.059-.242-.049-.346.308-.11.373-.354.218-.729.393-1.152.445-.976.119-1.515-.863-1.804-1.641 0-.001.001-.002.001-.005.017-.082-.008-.178-.089-.219-.082-.041-.167-.054-.239-.054-.01 0-.021.003-.033.004.042-.158.144-.326.241-.455.058-.078-.06-.144-.123-.095-.131.103-.241.224-.354.346-.092.1-.19.225-.217.361-.068.343.297.488.563.393.291.895.801 1.728 1.812 1.885.797.124 1.582-.278 2.172-.829.276.033.549.047.82.043z"/><path d="m67.448 40.557c.053.015.104.015.155.012.048.023.099.045.151.064.023.096.044.193.063.29.05.243.44.243.489 0 .005-.027.012-.056.018-.084.104.047.201.105.284.182.221.207.555-.13.331-.33-.165-.147-.354-.24-.556-.315-.003-.086-.018-.169-.05-.249.259.104.534.158.796.154.176-.003.174-.264 0-.272-.355-.019-.685-.124-.965-.35-.339-.274-.43-.681-.68-1.015-.084-.115-.297-.091-.291.078.016.406.215.752.506 1.015-.008-.001-.017-.002-.023-.003-.214-.029-.337.038-.496.166-.137.111-.135.381 0 .491.084.067.162.138.268.166z"/><path d="m62.686 44.46c-.031.214-.059.426-.116.625-.026-.029-.052-.059-.076-.086-.12-.138-.333.009-.293.171.035.141.079.271.137.387-.036.044-.075.086-.119.126-.161.146.007.417.208.359.089-.026.175-.063.26-.104.029.017.057.034.089.049.353.168.696.09 1.063.016.168-.034.168-.304 0-.338-.198-.041-.394-.09-.589-.14.178-.188.316-.41.382-.65.182-.666.23-1.715-.404-2.139-.133-.089-.322-.026-.4.105-.288.493-.059 1.076-.142 1.619z"/><path d="m60.179 42.485c.229.059.426.169.647.237.101.031.125.039.145.121.027.111-.03.251-.044.36-.02.157-.059.313-.092.467-.024.106.114.208.194.113.284-.332.609-.709.521-1.181-.042-.232-.203-.401-.396-.522-.283-.179-.673-.08-.976-.009-.207.049-.2.362.001.414z"/><path d="m61.385 48.425c-.169-.278-.562-.336-.795-.102-.235.234-.176.625.103.795.143.087.285.173.427.26.152.092.301.209.478.24.185.031.319-.103.288-.288-.03-.177-.147-.326-.239-.479-.088-.141-.175-.284-.262-.426z"/><path d="m64.504 52.16c-.349-.037-.59-.167-.809-.401.064-.25.063-.494-.146-.701-.254-.255-.682-.255-.937 0-.211.21-.254.546-.104.803.202.344.547.358.876.251.352.155.73.225 1.118.205.105-.007.101-.147.002-.157z"/><path d="m68.942 44.722c-.025-.168-.311-.168-.338 0-.097.612-.113 1.205-.123 1.825-.006.377.591.377.584 0-.007-.444-.019-.875-.06-1.309.56-.02 1.137-.16 1.303-.794.029-.107-.116-.207-.194-.114-.184.217-.273.477-.555.593-.178.074-.383.083-.58.083-.012-.094-.021-.189-.037-.284z"/><path d="m91.181 68.459c-2.135.133-4.218.785-6.214 1.518-2.607.955-5.159 2.145-7.568 3.525-2.35 1.348-4.607 2.955-6.605 4.785-.631.577-1.254 1.198-1.797 1.875-.035-.786-.068-1.572-.096-2.358-.164-4.782.301-9.833-.562-14.598.729 1.074 1.569 2.069 2.54 2.962 3.396 3.119 8.105 4.409 12.254 1.969 3.239-1.906 4.222-5.473 3.164-8.947-1.054-3.466-3.607-6.424-6.448-8.614.476-.035.945-.087 1.403-.153 3.945-.573 7.727-2.667 9.977-6 1.951-2.892 2.195-6.956-.066-9.741-2.012-2.477-5.31-3.39-8.375-3.561-1.391-.078-2.818.019-4.208.288.555-1.019 1.034-2.08 1.446-3.165 1.511-3.987 1.52-8.677-1.284-12.091-2.321-2.827-6.321-4.05-9.705-2.543-3.363 1.497-5.688 4.774-7.204 8.014-1.638 3.503-2.791 8.063-1.354 11.836-.19.088-.377.183-.561.284.313-3.201-1.051-6.585-2.492-9.349-1.67-3.204-4.252-6.388-7.762-7.617-3.712-1.3-7.363 1.096-9.275 4.201-2.213 3.591-1.051 8.026 1.086 11.341 1.341 2.081 3.139 3.935 5.209 5.373-.377-.052-.753-.096-1.124-.135-3.312-.34-6.892-.037-9.833 1.64-3.175 1.811-4.51 5.361-4.476 8.868.035 3.554 1.258 7.786 4.691 9.464 3.593 1.758 7.899.29 11.26-1.312 1.677-.799 3.273-1.766 4.8-2.825-.821 1.564-1.409 3.272-1.853 4.893-.97 3.545-1.277 7.57.1 11.055 1.195 3.025 4.296 5.797 7.762 5.203 3.278-.561 5.413-3.971 6.708-6.731.45-.959.84-1.942 1.168-2.944-.055 1.396-.095 2.792-.114 4.19-.055 4.008-.035 8.007.031 12.015.065 3.995.087 7.993.216 11.986.064 1.987.121 3.975.172 5.963.053 2.031-.025 4.092.275 6.102.132.878 1.635.879 1.766 0 .091-.607.142-1.22.172-1.834.344.22.88.098 1.007-.367.551-2.018.363-4.08.315-6.152-.05-2.135-.131-4.269-.219-6.402-.062-1.482-.137-2.966-.217-4.448.521.231 1.084.394 1.555.548 1.285.421 2.665.59 4.014.566 2.723-.045 5.328-1.139 7.523-2.693 4.852-3.434 8.051-9.173 9.619-14.803.143-.512-.263-1.116-.821-1.081zm-27.372-15.687c-.52-.04-1.031-.153-1.528-.322.051-.051.105-.099.16-.144.077-.063-.007-.188-.096-.163-.142.04-.29.095-.425.17-1.283-.517-2.461-1.406-3.431-2.428.143-.132.311-.235.463-.355.16-.126-.015-.374-.19-.326-.154.043-.42.14-.64.279-.378-.435-.72-.885-1.016-1.337-.493-.754-.895-1.614-1.104-2.507-.037-.824.022-1.663.164-2.491.289-.584.744-1.091 1.253-1.554.03-.027-.002-.075-.038-.065-.36.086-.668.212-.935.368 1.027-3.673 3.922-7.225 7.992-7.261.4-.004.787.028 1.158.09 0 .027-.001.054 0 .082.009.202.207.395.419.32.144-.051.272-.124.392-.213 2.842.862 4.662 3.621 5.031 6.644.312 2.555-.344 5.877-1.958 8.244-.978 1.188-2.315 2.2-3.704 2.8-.608.161-1.263.223-1.967.169zm17.287 1.993c2.133 2.322 4.303 5.886 3.102 9.128-.611 1.652-2.454 2.748-4.054 3.207-2.162.622-4.37-.091-6.213-1.242-2-1.251-3.648-3.191-4.93-5.147-.611-.934-1.16-1.934-1.642-2.94-.084-.177-.162-.356-.236-.537-.04-.866-.194-1.724-.559-2.463.543-.233 1.068-.522 1.569-.873.858-.603 1.481-1.481 1.955-2.443.563-.639 1.05-1.354 1.462-2.101.123.152.289.271.504.324 1.637.407 3.104.66 4.612 1.497 1.674.928 3.139 2.184 4.43 3.59zm1.772-21.277c-.072.501-.113.987-.127 1.512-.021.77-.157 1.608.072 2.35.057.186.318.186.375 0 .201-.65.101-1.348.082-2.022-.017-.63-.053-1.22-.137-1.826 1.84.133 3.599.641 5.029 1.545 2.73 1.726 2.747 5.23 1.242 7.791-1.902 3.232-6.039 5.079-9.632 5.518-1.2.147-2.425.139-3.622-.037-.891-.387-1.82-.664-2.728-.725-.309-.122-.612-.257-.91-.407.313-.905.528-1.854.643-2.82 1.065 1.006 2.95.888 4.301.723 2.13-.261 4.102-1.185 6.255-1.291.105-.005.139-.169.026-.192-1.681-.344-3.48-.318-5.177-.1-.98.125-1.958.174-2.944.09-.802-.068-1.579-.301-2.377-.246.017-.363.016-.726.002-1.089 3.464-.937 6.845-2.819 10.47-2.819.013 0 .016-.02.003-.021-1.89-.277-3.709-.263-5.595.032-1.709.266-3.377.699-5.063 1.054-.154-.876-.402-1.733-.75-2.545.054-.051.106-.106.153-.172.037-.052.078-.101.117-.15.137.002.265-.002.385-.014.007.373-.035.743-.089 1.049-.033.181.237.331.319.135.157-.367.227-.818.199-1.265.438-.13.795-.396 1.246-.836.357-.35.693-.717 1.018-1.096-.02.344-.031.689.063 1.021.048.167.291.167.338 0 .129-.449.063-.919.045-1.381-.002-.056-.004-.112-.007-.169.11-.134.218-.269.324-.405.653-.297 1.338-.54 2.044-.728-.003.09-.007.18-.008.271-.006.558-.142 1.241.11 1.752.063.128.274.128.337 0 .252-.511.115-1.194.111-1.752-.002-.137-.007-.271-.014-.404 1.27-.287 2.586-.399 3.871-.331zm-20.443-10.417c1.419-3.318 3.825-6.921 7.314-8.298 3.781-1.491 7.783 1.167 8.978 4.828 1.356 4.165-.73 8.995-2.999 12.437-.063.094-.129.185-.192.277-.025.011-.051.02-.076.031-1.777.739-3.528 1.804-4.367 3.519-.371-.466-.791-.886-1.248-1.257.58-1.091 1.002-2.327 1.535-3.411.754-1.532 1.547-3.083 2.5-4.5.09-.131-.104-.27-.214-.165-1.187 1.148-2.17 2.392-3.021 3.805-.657 1.089-1.423 2.264-1.984 3.465-.414-.235-.848-.435-1.295-.6.25-.938.33-1.991.446-2.658.347-1.99.681-4.676 2.433-5.983.08-.06.014-.177-.078-.134-1.848.862-2.543 2.69-3.027 4.577-.277 1.077-.481 2.171-.768 3.246-.053.201-.127.401-.207.6-1.111-.244-2.273-.28-3.411-.093.31-.979.252-2.194.262-3.181.009-1.046-.089-2.05-.534-3.007-.058-.123-.248-.034-.214.091.536 2.023-.851 4.302-.205 6.24-.083.021-.168.042-.251.065-.236.066-.466.143-.693.228-1.023-3.263.023-7.099 1.316-10.122zm-21 4.19c-.988-3.759 1.343-8.127 5.246-9.016 3.619-.824 6.816 2.823 8.645 5.415 2.067 2.93 3.667 6.571 3.891 10.206-.185-.32-.436-.585-.692-.89-.44-.522-.793-1.103-1.11-1.706-.63-1.197-1.072-2.632-1.379-3.946-.012-.055-.101-.058-.113 0-.312 1.552-.235 2.938.322 4.439.386 1.042 1.03 2.5 2.06 3.102-.11.093-.219.187-.325.284-.412-.656-1.049-1.152-1.6-1.694-.77-.756-1.5-1.55-2.255-2.322-1.351-1.382-2.706-2.924-3.685-4.594-.099-.168-.386-.058-.32.135.631 1.84 1.457 3.472 2.533 5.095.564.848 1.195 1.632 1.848 2.412.382.455.77.976 1.202 1.438-.725-.17-1.518-.227-2.181-.439-1.303-.419-2.617-1.032-3.866-1.573-.153-.066-.326.112-.188.244 1.088 1.05 2.105 1.994 3.482 2.688.882.444 2.082.956 3.117.811-.371.535-.706 1.097-1.003 1.673-.051-.105-.126-.206-.234-.297-.68-.572-1.732-.517-2.58-.745-1-.269-1.941-.7-2.848-1.195-3.619-1.981-6.901-5.473-7.967-9.525zm13.002 13.13c-.002.005-.005.01-.007.016-.003-.002-.007-.005-.011-.008.007-.003.012-.005.018-.008zm-15.99 15.508c-3.588-.589-4.715-4.4-4.863-7.578-.163-3.463 1.298-6.268 4.444-7.774 4.964-2.378 11.107-.842 16.158.512-.099.281-.19.563-.271.844-.103.356-.187.715-.256 1.077-1.382-.517-3.295-.21-4.724-.095-1.526.124-3.289.118-4.729.684-.13.05-.13.212 0 .263 1.441.567 3.203.561 4.729.684.604.049 1.293.131 1.994.172-.842.411-1.688.811-2.545 1.19-2.609 1.158-5.351 1.912-8.082 2.708-.072.021-.104.144-.023.179 2.53 1.071 5.445.057 7.869-.844 1.424-.529 2.818-1.145 4.204-1.77.327-.147.718-.295 1.121-.46.014.271.034.542.066.811-.264.139-.517.309-.82.494-.771.47-1.604.838-2.407 1.249-.708.363-1.422.717-2.121 1.1-.605.33-1.042.926-1.5 1.428-.045.049.011.122.07.091.665-.339 1.403-.387 2.095-.67.836-.343 1.693-.642 2.539-.966.728-.28 1.702-.626 2.447-1.153.08.3.174.596.28.887-.047.028-.093.056-.137.085-.68.456-1.293 1.009-1.948 1.5-1.414 1.058-2.904 2.014-4.45 2.867-2.65 1.461-6.031 2.995-9.14 2.485zm25.426 7.582c-.899 2.974-2.447 6.721-5.303 8.322-2.578 1.446-5.386-1.327-6.231-3.657-1.231-3.394-.753-7.471.131-10.888.544-2.106 1.324-4.415 2.709-6.161.221.341.465.668.729.982-.682 1.081-1.189 2.372-1.691 3.408-.808 1.664-1.524 3.414-1.512 5.286.003.48.724.591.843.114.475-1.903 1.203-3.648 2.152-5.362.398-.718.934-1.488 1.354-2.291.059.05.117.102.178.15.407.332.839.625 1.289.879-.661 1.037-1.04 2.303-1.316 3.441-.521 2.148-.89 4.417-.922 6.624-.007.492.645.519.804.109.712-1.83.904-3.813 1.381-5.716.336-1.339.839-2.592 1.345-3.852 1.008.383 2.07.584 3.136.602-.096.186-.186.378-.261.582-.311.842-.443 1.797-.589 2.68-.275 1.664-.308 3.308-.016 4.967.062.352.619.263.612-.083-.055-2.81.542-5.463 1.094-8.171.294-.022.587-.058.879-.109.806 2.525-.077 5.77-.795 8.144zm18.227 19.027c-1.896 1.523-4.232 2.578-6.665 2.788-1.294.112-2.575-.064-3.821-.414-.778-.219-1.595-.747-2.419-.954-.005-.109-.011-.219-.017-.328.186-.141.364-.311.564-.499.398-.375.815-.731 1.24-1.077.622.219 1.34.193 1.99.219.934.038 1.865.109 2.797.15 1.566.07 3.116.021 4.464-.87.126-.084.049-.292-.105-.25-1.515.413-3.354.06-4.88-.159-.73-.104-1.643-.342-2.527-.436 1.172-.857 2.391-1.656 3.625-2.42.075.053.164.082.262.076.54-.032 1.019-.217 1.547-.336.77-.173 1.583-.152 2.365-.119 1.308.058 2.604.2 3.913.222.289.005.341-.42.067-.498-1.425-.405-2.858-.783-4.344-.878-.353-.022-.738-.035-1.133-.024 2.668-1.452 5.426-2.669 8.266-3.796.041-.016.034-.072-.011-.076-1.739-.16-3.385.455-4.999 1.041-2.039.742-3.979 1.708-5.88 2.748-.948.519-1.884 1.063-2.802 1.633 1.578-1.166 3.279-2.162 4.813-3.033 2.286-1.299 4.604-2.512 7.051-3.482 1.449-.575 2.989-1.141 4.549-1.42-1.458 4.691-4.052 9.09-7.91 12.192z"/></g></svg>