<svg enable-background="new 0 0 174.716 147.293" height="147.293" viewBox="0 0 174.716 147.293" width="174.716" xmlns="http://www.w3.org/2000/svg" xmlns:xlink="http://www.w3.org/1999/xlink"><linearGradient id="a"><stop offset="0" stop-color="#f8f8d2"/><stop offset=".1264" stop-color="#f6f2c3"/><stop offset=".3761" stop-color="#eddc99"/><stop offset=".7215" stop-color="#deb85e"/><stop offset="1" stop-color="#d19807"/></linearGradient><linearGradient id="b" gradientUnits="userSpaceOnUse" x1="90.5894" x2="118.4233" xlink:href="#a" y1="61.417" y2="61.417"/><linearGradient id="c" gradientUnits="userSpaceOnUse" x1="55.6011" x2="102.0084" xlink:href="#a" y1="56.4668" y2="71.8545"/><linearGradient id="d" gradientUnits="userSpaceOnUse" x1="114.3647" x2="142.1987" xlink:href="#a" y1="47.7197" y2="47.7197"/><linearGradient id="e" gradientUnits="userSpaceOnUse" x1="109.7993" x2="115.8241" xlink:href="#a" y1="22.5674" y2="38.0357"/><linearGradient id="f" gradientUnits="userSpaceOnUse" x1="109.5269" x2="123.5269" xlink:href="#a" y1="54.543" y2="54.543"/><linearGradient id="g" gradientUnits="userSpaceOnUse" x1="64.3687" x2="110.776" xlink:href="#a" y1="30.0259" y2="45.4135"/><linearGradient id="h" gradientUnits="userSpaceOnUse" x1="39.3408" x2="53.3477" xlink:href="#a" y1="37.6719" y2="37.6719"/><path d="m3.178 95.734v-6.567h6.461v6.567zm0 31.141v-26.798h6.461v26.798z" fill="#c92373"/><path d="m32.624 126.875v-14.141c0-2.33-.565-4.113-1.695-5.349-1.024-1.129-2.366-1.695-4.025-1.695-2.966 0-4.449 1.607-4.449 4.82v16.365h-6.461v-18.325c0-6.072 3.072-9.109 9.215-9.109 3.072 0 5.508 1.095 7.309 3.283h.106v-2.648h6.461v26.798h-6.461z" fill="#c92373"/><path d="m68.796 107.067-5.667 2.595c-.424-1.306-1.157-2.348-2.198-3.125-1.042-.776-2.198-1.165-3.469-1.165-2.189 0-3.919.83-5.19 2.489-1.165 1.519-1.748 3.39-1.748 5.614 0 2.26.53 4.131 1.589 5.614 1.2 1.66 2.86 2.489 4.979 2.489 2.93 0 5.102-1.729 6.514-5.19l5.508 2.913c-2.507 5.474-6.55 8.209-12.128 8.209-4.025 0-7.256-1.342-9.692-4.025-2.366-2.577-3.548-5.913-3.548-10.009s1.227-7.458 3.681-10.089c2.454-2.63 5.799-3.945 10.036-3.945 5.472-.001 9.249 2.541 11.333 7.625z" fill="#dca817"/><path d="m95.382 108.233v14.14c0 1.942.335 3.443 1.006 4.502h-6.832c-.424-.636-.636-1.447-.636-2.436-2.542 2.047-5.455 3.071-8.739 3.071-2.613 0-4.785-.769-6.514-2.304-1.73-1.536-2.595-3.575-2.595-6.117 0-4.519 2.718-7.309 8.156-8.368l2.701-.529c1.801-.353 4.131-.882 6.991-1.589v-.794c0-2.259-1.695-3.39-5.084-3.39-1.872 0-3.169.3-3.893.9-.724.601-1.085 1.642-1.085 3.125l-6.461-.265c0-2.93 1.165-5.172 3.496-6.726 2.047-1.341 4.695-2.012 7.944-2.012 3.496 0 6.144.512 7.944 1.536 2.401 1.377 3.601 3.796 3.601 7.256zm-6.461 9.056v-3.813c-.707.353-1.73.671-3.072.953l-3.548.741c-1.483.318-2.525.688-3.125 1.112-.883.565-1.324 1.43-1.324 2.595 0 .989.397 1.792 1.191 2.409.794.619 1.792.928 2.993.928 1.729 0 3.248-.389 4.555-1.166 1.553-.917 2.33-2.17 2.33-3.759z" fill="#dca817"/><path d="m117.996 126.875v-14.141c0-2.33-.564-4.113-1.694-5.349-1.024-1.129-2.366-1.695-4.025-1.695-2.966 0-4.448 1.607-4.448 4.82v16.365h-6.461v-18.325c0-6.072 3.071-9.109 9.215-9.109 3.072 0 5.508 1.095 7.309 3.283h.105v-2.648h6.461v26.798h-6.462z" fill="#dca817"/><path d="m131.819 100.077v-9.533h6.461v9.533h5.772v4.661h-5.772v13.558c0 1.166.177 1.979.53 2.437.424.565 1.218.848 2.383.848l2.859-.317v5.295c-2.048.424-3.76.637-5.137.637-4.732 0-7.097-2.154-7.097-6.462v-15.994h-3.918v-4.661h3.919z" fill="#dca817"/><path d="m159.517 99.441c4.236 0 7.607 1.342 10.115 4.025 2.4 2.578 3.602 5.914 3.602 10.01s-1.201 7.432-3.602 10.009c-2.508 2.684-5.879 4.025-10.115 4.025-4.238 0-7.609-1.342-10.117-4.025-2.4-2.577-3.6-5.913-3.6-10.009s1.225-7.458 3.68-10.089c2.453-2.63 5.799-3.946 10.037-3.946zm0 5.932c-2.191 0-3.92.83-5.191 2.489-1.164 1.519-1.748 3.39-1.748 5.614s.584 4.096 1.748 5.614c1.271 1.66 3 2.489 5.191 2.489 2.188 0 3.918-.829 5.189-2.489 1.164-1.518 1.748-3.39 1.748-5.614 0-2.225-.584-4.096-1.748-5.614-1.271-1.659-3.001-2.489-5.189-2.489z" fill="#dca817"/><g fill="#fff"><path d="m39.474 144.707v-7.838h1.274v6.697h2.848v1.141z"/><path d="m53.709 140.805c0 .557-.104 1.083-.313 1.579s-.513.938-.913 1.327c-.403.39-.858.688-1.365.895s-1.039.311-1.595.311c-.564 0-1.102-.104-1.614-.313-.512-.208-.964-.506-1.357-.892-.4-.389-.703-.83-.91-1.322s-.311-1.02-.311-1.584c0-.561.104-1.089.311-1.585.207-.495.51-.94.91-1.333.399-.389.853-.686 1.36-.889.506-.203 1.044-.305 1.611-.305.563 0 1.098.102 1.603.305s.958.5 1.357.889c.4.396.704.844.913 1.342.209.496.313 1.022.313 1.575zm-1.327 0c0-.396-.072-.773-.217-1.13s-.353-.675-.624-.952c-.264-.275-.57-.486-.918-.635-.348-.148-.715-.223-1.1-.223-.386 0-.752.074-1.1.22s-.658.358-.929.638c-.271.274-.478.59-.621.947-.143.356-.214.734-.214 1.135 0 .396.071.771.214 1.124.143.354.35.669.621.947s.58.491.926.638.714.219 1.103.219c.382 0 .745-.072 1.089-.219.344-.146.654-.359.929-.638.271-.278.479-.595.624-.95s.217-.729.217-1.121z"/><path d="m56.543 143.283c.132.156.259.271.38.342.121.072.25.107.385.107.25 0 .426-.082.527-.246s.152-.469.152-.915v-5.702h1.264v6.114c0 .663-.146 1.151-.439 1.464s-.75.469-1.371.469c-.342 0-.652-.066-.929-.198s-.538-.337-.784-.616z"/><path d="m67.541 144.707-.889-2.018h-3.105l-.91 2.018h-1.338l3.795-8.147 3.79 8.147zm-3.523-3.078h2.184l-.803-1.788c-.046-.114-.095-.245-.145-.394s-.1-.313-.15-.495c-.043.171-.088.331-.136.479s-.098.284-.147.409z"/><path d="m82.093 138.775c-.36-.307-.741-.537-1.143-.69-.401-.153-.823-.229-1.266-.229-.856 0-1.553.274-2.09.824-.537.549-.806 1.262-.806 2.136 0 .846.261 1.544.784 2.093.523.55 1.182.824 1.978.824.464 0 .906-.082 1.325-.246s.822-.412 1.207-.744v1.44c-.343.246-.715.43-1.119.552-.403.121-.841.182-1.312.182-.6 0-1.154-.099-1.663-.295-.508-.195-.956-.484-1.341-.867-.382-.375-.675-.816-.88-1.324-.206-.51-.308-1.051-.308-1.625s.103-1.115.308-1.619c.205-.506.502-.949.891-1.33.389-.387.835-.678 1.338-.876s1.047-.297 1.633-.297c.46 0 .899.067 1.317.2.417.135.822.337 1.215.607z"/><path d="m93.144 140.805c0 .557-.104 1.083-.313 1.579s-.513.938-.913 1.327c-.403.39-.858.688-1.365.895s-1.039.311-1.595.311c-.564 0-1.102-.104-1.614-.313-.512-.208-.964-.506-1.357-.892-.4-.389-.703-.83-.91-1.322s-.311-1.02-.311-1.584c0-.561.104-1.089.311-1.585.207-.495.51-.94.91-1.333.399-.389.853-.686 1.36-.889.506-.203 1.044-.305 1.611-.305.563 0 1.098.102 1.603.305s.958.5 1.357.889c.4.396.704.844.913 1.342.209.496.313 1.022.313 1.575zm-1.328 0c0-.396-.072-.773-.217-1.13s-.353-.675-.624-.952c-.264-.275-.57-.486-.918-.635-.348-.148-.715-.223-1.1-.223-.386 0-.752.074-1.1.22s-.658.358-.929.638c-.271.274-.478.59-.621.947-.143.356-.214.734-.214 1.135 0 .396.071.771.214 1.124.143.354.35.669.621.947s.58.491.926.638.714.219 1.103.219c.382 0 .745-.072 1.089-.219.344-.146.654-.359.929-.638.271-.278.479-.595.624-.95s.217-.729.217-1.121z"/><path d="m96.042 144.707v-7.838h1.274v6.697h2.848v1.141z"/><path d="m107.81 144.707-.889-2.018h-3.105l-.91 2.018h-1.338l3.795-8.147 3.791 8.147zm-3.522-3.078h2.185l-.804-1.788c-.046-.114-.095-.245-.145-.394s-.101-.313-.149-.495c-.043.171-.089.331-.137.479-.049.148-.098.284-.147.409z"/><path d="m111.329 144.707v-7.838h1.976c.563 0 .98.031 1.25.092s.498.16.688.3c.242.179.432.412.564.701.135.289.201.608.201.958 0 .418-.096.767-.289 1.047s-.473.476-.84.586c.456.072.816.279 1.078.624s.394.778.394 1.304c0 .317-.056.619-.166.904s-.268.528-.472.729c-.214.217-.479.371-.797.46s-.852.134-1.602.134h-1.985zm1.247-4.529h.487c.606 0 1.036-.082 1.288-.248.251-.166.377-.445.377-.838 0-.429-.116-.729-.348-.902-.232-.174-.672-.26-1.317-.26h-.487zm0 3.464h.439c.445 0 .779-.018 1.001-.054.222-.035.396-.098.524-.188.157-.104.278-.242.364-.417.085-.175.128-.368.128-.578 0-.25-.051-.468-.154-.653s-.252-.33-.445-.434c-.121-.061-.26-.105-.414-.134-.156-.028-.361-.043-.619-.043h-.385-.439z"/><path d="m127.117 140.805c0 .557-.104 1.083-.313 1.579s-.514.938-.914 1.327c-.402.39-.857.688-1.364.895s-1.038.311-1.595.311c-.564 0-1.103-.104-1.615-.313-.512-.208-.964-.506-1.356-.892-.399-.389-.703-.83-.91-1.322s-.311-1.02-.311-1.584c0-.561.104-1.089.311-1.585.207-.495.511-.94.91-1.333.399-.389.853-.686 1.36-.889.506-.203 1.043-.305 1.611-.305.563 0 1.098.102 1.603.305s.958.5 1.356.889c.4.396.705.844.914 1.342.208.496.313 1.022.313 1.575zm-1.328 0c0-.396-.072-.773-.217-1.13s-.352-.675-.623-.952c-.264-.275-.57-.486-.918-.635s-.715-.223-1.1-.223c-.387 0-.753.074-1.101.22-.349.146-.657.358-.929.638-.271.274-.479.59-.621.947-.143.356-.215.734-.215 1.135 0 .396.072.771.215 1.124s.35.669.621.947.58.491.926.638.714.219 1.104.219c.381 0 .744-.072 1.089-.219s.653-.359.929-.638c.271-.278.479-.595.623-.95s.217-.729.217-1.121z"/><path d="m131.208 141.201v3.506h-1.193v-7.838h1.777c.521 0 .925.035 1.212.103s.532.181.735.337c.243.189.431.434.563.733.133.3.198.628.198.985 0 .628-.151 1.119-.455 1.475s-.751.568-1.343.64l2.697 3.565h-1.439l-2.607-3.506zm.081-.99h.23c.674 0 1.122-.079 1.344-.236.221-.156.332-.436.332-.835 0-.432-.119-.736-.356-.913-.237-.176-.677-.265-1.319-.265h-.23v2.249z"/><path d="m142.767 144.707-.889-2.018h-3.104l-.91 2.018h-1.339l3.796-8.147 3.79 8.147zm-3.521-3.078h2.184l-.803-1.788c-.047-.114-.096-.245-.145-.394-.051-.148-.101-.313-.15-.495-.043.171-.088.331-.137.479-.048.148-.098.284-.146.409z"/><path d="m148.218 137.951v6.756h-1.273v-6.756h-2.083v-1.082h5.429v1.082z"/><path d="m152.722 144.707v-7.838h1.275v7.838z"/><path d="m159.753 145.012-3.496-8.143h1.322l1.756 4.176c.104.243.189.467.258.672.066.205.121.4.16.586.045-.195.105-.398.176-.609.072-.211.156-.427.252-.648l1.75-4.176h1.318z"/><path d="m170.46 144.707-.889-2.018h-3.105l-.908 2.018h-1.34l3.797-8.147 3.789 8.147zm-3.521-3.078h2.184l-.803-1.788c-.047-.114-.096-.245-.145-.394-.051-.148-.1-.313-.15-.495-.043.171-.088.331-.137.479s-.098.284-.146.409z"/></g><path d="m103.853 24.403-14.039 7.856 13.609 8.158 14.037-7.857z" fill="#d8aa1c"/><path d="m79.606 47.093-17.745-10.318-17.914 10.331 17.713 10.304z" fill="#f7f3a8"/><path d="m84.917 43.775.045-20.229-17.627 9.988.058 20.47z" fill="#fdfad4"/><path d="m67.289 60.66.058-20.737 17.576 10.284.018 20.633z" fill="#f9ed47"/><path d="m84.887 30.094.183-16.229 13.957 8.059-.184 16.228z" fill="#f5dc54"/><path d="m43.708 31.219 13.87-8.062 13.964 8.063-13.87 8.06z" fill="#d8aa1c"/><path d="m39.311 28.597.044-16.038 13.956 8.059-.044 16.037z" fill="#a30c39"/><path d="m43.708 63.113 13.87-8.061 13.964 8.063-13.87 8.061z" fill="#d8aa1c"/><path d="m39.311 60.492.044-16.037 13.956 8.058-.044 16.038z" fill="#f5dc54"/><path d="m53.348 73.556-.045-16.037-13.956 8.058.045 16.038z" fill="#a30c39"/><path d="m90.589 61.415 13.871-8.06 13.963 8.063-13.869 8.06z" fill="url(#b)"/><path d="m84.887 59.436.045-16.038 13.958 8.059-.047 16.039z" fill="#f5dc54"/><path d="m98.925 72.501-.045-16.038-13.957 8.058.045 16.039z" fill="url(#c)"/><path d="m65.535 18.659 13.869-8.061 13.965 8.063-13.871 8.06z" fill="#a30c39"/><path d="m61.137 16.039.045-16.039 13.956 8.059-.045 16.037z" fill="#c03978"/><path d="m75.174 29.102-.045-16.038-13.957 8.059.045 16.038z" fill="#d690a9"/><path d="m65.535 75.705 13.869-8.061 13.965 8.063-13.871 8.06z" fill="#a30c39"/><path d="m61.137 73.083v-15.978l14.001 7.999-.045 16.037z" fill="#d690a9"/><path d="m75.174 86.147-.045-16.037-13.957 8.058.045 16.039z" fill="#c03978"/><path d="m114.365 47.718 13.871-8.06 13.963 8.063-13.869 8.06z" fill="url(#d)"/><path d="m109.527 43.831.043-16.037 13.957 8.058-.045 16.038z" fill="url(#e)"/><path d="m123.527 58.533-.045-16.038-13.955 8.059.043 16.037z" fill="url(#f)"/><path d="m98.925 43.157.043-16.037-14.045 8.057-.012 16.039z" fill="url(#g)"/><path d="m53.348 41.661-.045-16.038-13.956 8.059-.006 16.038z" fill="url(#h)"/></svg>