<svg enable-background="new 0 0 74.074 74.074" height="35.817463" viewBox="0 0 39.181001 35.817464" width="39.181" xmlns="http://www.w3.org/2000/svg"><g transform="translate(-21.799551 -18.000306)"><g clip-rule="evenodd" fill-rule="evenodd"><path d="m25.089 27.141c-2.094-3.934-1.532-5.905 3.26-7.814 4.792-1.91 25.832-1.622 24.287 0-1.545 1.621.318 1.123-.232 1.584-1.629 1.036-3.467.969-5.285 1.008-4.208.053-8.42-.002-12.633.028-3.193.024-5.714 1.075-7.172 4.081-.569.715-1.225 1.267-2.225 1.113z" fill="#9c3689"/><path d="m51.641 20.688c-.004-.367-.004-.734 0-1.1h1.103c.879 1.565 2.688.74 3.853 1.486 1.455.936 1.074 1.588-.455 1.883-1.019.871-.336 2.342-1.156 3.282-.004.718-.006 1.438-.008 2.159-3.018.066-3.615-2.604-4.988-4.406-.455-1.601.416-2.544 1.651-3.304z" fill="#803a8a"/><path d="m25.089 27.141c.387-.4.776-.804 1.163-1.205 4.578-5.182 11.083-4.186 16.057-2.779 4.917 1.389 9.693 4.672 14.406 7.359 2.589 2.56 2.909 5.513 1.519 8.76-.053.899-.326 1.672-1.206 2.098-1.091 1.154-.884 2.82-1.616 4.12-1.658 1.752-4.387 2.644-5.94 1.741-4.289-2.491-5.521-.064-6.725 3.158-8.392 4.317-7.87 3.627-14.638-3.453-6.165-6.45-6.445-12.524-3.02-19.799z" fill="#c4496d"/><path d="m55.961 31.463c-1.365.263-1.246-5.127-3.957-.852-1.047 1.652-2.166-.936-3.119-1.818-5.98-5.535-16.106-6.816-22.634-2.857.79-4.031 3.342-5.643 7.324-5.535 4.508.124 9.02.091 13.53.127 1.451 1.102 2.232 3.137 4.443 3.168 2.203.758 2.688 3.223 4.426 4.444.383.352.765.703 1.148 1.056.679 1.3-.392 1.705-1.161 2.267z" fill="#bf3684"/><path d="m42.747 50.393c1.619-3.002-2.186-1.782-2.772-3.721 3.762.014 6.829-1.459 9.048-4.205 1.989 1.842-.257 2.666.097 4.15 2.17.338 3.977-.646 5.715-1.874 2.063-.14 1.783.927 1.123 2.187-4.403 1.155-8.81 2.309-13.211 3.463z" fill="#bf3684"/><path d="m55.961 31.463c.389-.758.773-1.512 1.162-2.268 3 3.07 6.361 6.102 1.109 10.079-.706-2.619.133-5.686-2.271-7.811z" fill="#89398a"/><path d="m55.957 46.93c-.068-.886-.217-1.73-1.123-2.187.011-1.594.598-2.812 2.197-3.37-1.193 1.69 3.016 4.424-1.074 5.557z" fill="#89398a"/><path d="m54.982 26.501c-.6-1.441-2.07-3.761.979-3.917 1.538-.556 2.51 3.268 2.51 3.268s-2.994 2.166-3.489.649z" fill="#9c3689"/><path d="m51.549 23.695c-.338.574-.896 1.677-.979 1.644-2.112-.88-3.608-2.28-3.465-4.812 1.844-.033 3.688-.068 5.531-.102-.362 1.092-.724 2.179-1.087 3.27z" fill="#a33489"/><path d="m29.539 52.803c-.35-.107-.701-.217-1.05-.324-4.387-1.147-5.727-5.25-6.376-8.579-.64-3.289-.131-7.057.049-10.61.733-2.272 2.368-3.334 4.68-3.48.542-.235 1.076-.303 1.585.086.998.298 1.913-.316 2.89-.272 1.515.454 2.845 1.787 2.776 2.964-.19 3.248 1.595 3.251 3.837 3.003 5.009 3.637 4.451 3.534 2.307 9.592-1.953 5.514-5.427 7.475-10.698 7.62z" fill="#d17b5c"/><path d="m25.021 50.226c-.653-.056-1.304-.118-1.954-.188.063-.655.125-1.305.188-1.959 2.93-1.296 1.772-4.649 3.294-6.591 1.908-2.426 3.003-1.637 3.268 1.129 1.373 1.956 4.104.994 5.632 2.612 1.276.126 2.554.253 3.835.379-.394 5.372-5.24 5.979-8.672 8.112-2.923.532-4.45-1.174-5.591-3.494z" fill="#dfa251"/></g><path d="m44.438 46.236h-9.258c-4.108 0-7.452-3.344-7.452-7.452v-8.159c0-4.108 3.343-7.451 7.452-7.451h9.258c4.109 0 7.451 3.343 7.451 7.451v8.159c0 4.109-3.342 7.452-7.451 7.452zm-9.259-21.406c-3.196 0-5.796 2.6-5.796 5.795v8.159c0 3.196 2.6 5.796 5.796 5.796h9.258c3.195 0 5.795-2.6 5.795-5.796v-8.159c0-3.195-2.6-5.795-5.795-5.795z" fill="#fff"/><path d="m39.809 41.339c-3.658 0-6.633-2.977-6.633-6.634 0-3.658 2.976-6.634 6.633-6.634s6.633 2.976 6.633 6.634c-.001 3.657-2.976 6.634-6.633 6.634zm0-11.611c-2.745 0-4.978 2.232-4.978 4.978 0 2.744 2.233 4.977 4.978 4.977s4.977-2.232 4.977-4.977c-.001-2.746-2.233-4.978-4.977-4.978z" fill="#fff"/></g><circle cx="24.540449" cy="10.274694" fill="#fff" r="1.376"/></svg>