<svg enable-background="new 0 0 112.963 129.629" height="85.55275" viewBox="0 0 84.273714 85.552751" width="84.273712" xmlns="http://www.w3.org/2000/svg"><g fill="#e6b54a" transform="translate(-12.010958 -17.597958)"><path d="m95.609 95.569c-.416-1.807-1.172-3.563-2.217-5.096-1.877-2.758-4.676-4.517-7.715-5.751-2.986-1.213-6.164-1.869-9.246-2.778-2.783-.821-5.711-1.841-7.83-3.901-1.729-1.68-2.479-3.818-3.051-6.068.425-.338.827-.703 1.201-1.092 3.084-3.196 4.617-7.592 6.083-11.687 1.724-4.814 3.055-9.78 3.61-14.872.532-4.872.129-9.856-1.848-14.378-2.108-4.828-6.311-8.411-11.074-10.484-9.512-4.144-21.291-1.347-26.428 8.076-.414.76-.765 1.541-1.063 2.338-.014-.388-.023-.775-.021-1.16 0-.074-.119-.094-.132-.018-.141.807-.223 1.612-.26 2.413-.986 3.283-1.143 6.793-.926 10.219.31 4.896 1.481 9.698 3.294 14.249 1.806 4.532 4.283 8.803 7.606 12.394.681.737 1.409 1.433 2.174 2.081-.443.843-.795 1.735-1.049 2.665-.449 1.646-.619 3.352-1.026 5.008-.349 1.41-.916 2.822-2.118 3.717-1.864 1.389-4.274 1.715-6.529 1.873-2.913.205-5.684-.127-8.55-.627-2.728-.477-5.521-.998-8.296-.668-2.551.303-5.248 1.53-6.669 3.77-1.25 1.971-1.458 4.642-1.508 6.906-.067 2.967.169 6.574 1.699 9.202.512.882 1.593.627 2.002-.037 2.481.221 5.219-.5 7.565-.72 3.472-.324 6.93-1.009 10.402-1.39 7.14-.782 14.337-1.459 21.521-1.629 6.685-.159 13.359.419 19.973 1.368 3.236.464 6.46 1.027 9.678 1.608 1.59.287 3.176.582 4.763.875 1.503.278 3.249.979 4.66.217.043.146.089.291.144.434.271.717 1.139.682 1.422 0 .865-2.076.254-4.912-.241-7.057zm-3.32-2.55c.67 1.292 1.068 2.725 1.357 4.145.163.805.207 1.636.263 2.463-.44-1.684-1.026-3.355-1.578-4.986-.479-1.416-1.039-2.84-1.938-4.046-2.143-2.874-6.039-3.861-9.333-4.691-1.859-.469-3.743-.786-5.572-1.367-2.019-.643-3.977-1.471-5.854-2.451-2.294-1.198-7.133-3.779-5.665-6.969.289.755.59 1.508 1.001 2.213.739 1.266 2.024 2.63 3.532 2.949 2.195 1.926 4.977 2.959 7.74 3.789 5.932 1.784 12.911 2.907 16.047 8.951zm-25.286-14.339c-.05-.038-.101-.072-.15-.113-.735-.611-1.255-1.449-1.712-2.276-.313-.567-.6-1.155-.899-1.734.124-.317.177-.644.271-.988.075-.271-.046-.546-.251-.708.134-.078.264-.16.395-.244.183 2.193 1.007 4.319 2.346 6.063zm-29.67-43.779c.278 3.886 2.157 7.685 4.167 10.9.005.497.015.994.032 1.492.004.118.18.118.183 0 .24-6.241.493-12.484 2.229-18.353-1.722 5.235-2.464 10.761-2.447 16.35-1.914-3.443-3.659-7.187-3.921-11.158-.018-.26-.023-.517-.021-.771.011-.064.019-.13.031-.194.539-2.779 1.826-5.299 3.633-7.382.238-.202.481-.398.736-.583-.227.159-.446.324-.66.493 1.426-1.621 3.168-2.973 5.123-3.97.294-.15.593-.291.894-.422-1.51 2.448-2.59 5.004-3.368 7.637.865-2.631 1.983-5.186 3.374-7.64 9.234-4.02 21.469.756 25.384 10.062 3.943 9.373.388 20.167-2.791 29.194-1.837 5.213-5.925 13.661-12.803 10.597-1.048-.466-2.016-1.085-2.919-1.798.208-.029.418-.058.623-.093-.211.031-.424.058-.641.08-1.574-1.245-2.947-2.779-4.186-4.307-2.509-3.094-4.577-6.606-6.407-10.134-2.322-4.475-4.203-9.193-5.587-14.041-.292-1.023-.569-2.07-.818-3.13.002-.949.056-1.894.16-2.829zm8.362 28.645c-3.286-4.349-5.475-9.464-6.863-14.71-.316-1.197-.608-2.429-.859-3.681.493 1.612 1.038 3.21 1.625 4.787 2.28 6.101 5.252 12.357 9.558 17.373-1.258-1.148-2.42-2.392-3.461-3.769zm5.084 8.656c2.004 1.181 4.094 1.521 6.386 1.746.282.028.445-.118.504-.313.542.157 1.099.277 1.671.347.982.12 1.941.021 2.854-.237-.703.854-.958 2.06-.755 3.245.294 1.715 1.534 3.105 2.822 4.189 3.187 2.677 7.36 4.328 11.333 5.429 1.892.524 3.869.832 5.818 1.232 2.328 1.762 3.721 4.391 4.238 7.514.038.231.398.137.353-.096-.64-3.279-2.126-5.696-4.507-7.4 1.961.406 3.891.913 5.674 1.838 2.945 1.531 3.953 4.798 5.017 7.719.271.744.526 1.495.811 2.232-.667-.196-1.401-.27-2.154-.416-.593-.113-1.185-.227-1.776-.341-.014-3.748-2.126-7.132-4.742-9.702-.028-.027-.07.015-.044.043 1.405 1.49 2.6 3.094 3.397 4.988.624 1.479.768 3.022.928 4.583-.985-.19-1.97-.38-2.954-.567-3.21-.608-6.429-1.188-9.659-1.684-6.729-1.036-13.508-1.578-20.316-1.439-5.274.106-10.572.514-15.831 1.112-4.046.138-8.085.413-12.098.979-2.281.322-4.512.904-6.755 1.422-.301-2.858.696-5.457 2.395-7.861.045-.064-.06-.123-.106-.062-1.784 2.429-2.826 5.063-2.564 7.986-.165.037-.329.075-.494.112-.917.203-1.942.461-2.982.643-1.199-3.432-.591-6.788.95-9.85.615-.685 1.313-1.318 2.111-1.883.032-.023.001-.074-.031-.053-.714.49-1.347 1.036-1.92 1.622.564-1.07 1.24-2.104 1.989-3.09.042-.055-.053-.127-.096-.072-.928 1.154-1.821 2.471-2.54 3.875-1.563 1.858-2.547 4.082-3.095 6.466-.065-.736-.095-1.467-.117-2.156-.012-.385-.02-.781-.02-1.185.352-1.901.97-3.708 2.092-5.159 2.166-2.804 6.164-2.921 9.394-2.87.927.014 1.952.08 3.037.16.63.111 1.262.216 1.892.303 1.824.252 3.653.273 5.476.128 5.565.021 10.903-1.126 12.547-6.851.283-.984.385-2.027.432-3.046.063-1.406-.015-2.523-.685-3.76-.179-.329-.657-.302-.841-.015.12-.529.264-1.049.434-1.563.797.646 1.641 1.238 2.527 1.758zm-36.088 25.033c.433-2.469 1.299-4.805 2.781-6.777-1.374 2.884-1.963 6.1-.593 9.047-.547.086-1.094.146-1.63.162-.278-.769-.449-1.597-.558-2.432zm32.143-17.987c.417-1.814.423-3.795.673-5.568-.159 1.861.053 3.75-.673 5.568zm-29.902 6.475c-.354.277-.674.582-.962.911.274-.353.598-.655.962-.911zm-1.274 14.869c-.039-.075-.08-.149-.118-.227.404.026.819.015 1.233-.021-.374.078-.745.159-1.115.248z"/><path d="m41.956 25.204c.569-.397 1.178-.763 1.819-1.102-.643.323-1.252.691-1.819 1.102z"/><path d="m44.665 23.655c-.304.143-.599.293-.89.447.294-.147.595-.287.903-.416.022-.01.009-.042-.013-.031z"/><path d="m70.742 55.008c.14-.193-.176-.369-.316-.185-3.949 5.192-7.028 11.742-13.3 13.883 2.416-.767 4.527-2.064 6.444-4.006 2.826-2.861 4.828-6.454 7.172-9.692z"/><path d="m54.813 69.264c.818-.121 1.587-.311 2.313-.558-.741.235-1.513.419-2.313.558z"/></g></svg>