<svg enable-background="new 0 0 112.963 129.629" height="87.801315" viewBox="0 0 86.378183 87.801317" width="86.378181" xmlns="http://www.w3.org/2000/svg"><g fill="#e6b54a" transform="translate(-16.099074 -23.241744)"><path d="m58.459 36.541c-3.45-.693-7.104-.576-10.457.414-3.591 1.061-6.308 3.236-8.548 5.797-7.018 8.027-7.31 18.129-2.697 27.12 1.239 2.414 2.874 4.677 4.244 7.035 1.597 2.746 3.003 5.566 4.191 8.461.827 2.016 1.053 4.02 1.672 6.065.341 1.124.997 2.188 2.165 2.681.007.082.052.16.143.203 2.352 1.086 5.005.962 7.58.639 1.46-.184 2.884-.529 4.319-.813 1.359-.268 2.848-.245 4.1-.767.008-.005.012-.011.02-.013 1.045 1.182 2.291 2.258 1.067 3.547-.2.001-.384.117-.393.332-.001.008 0 .015 0 .021-1.784 1.403-4.712 1.848-7.021 2.077-3.324.333-12.578.355-10.063-4.528.113-.22-.21-.387-.376-.189-1.208 1.441-1.137 2.908.063 4.009-1.577 1.897-2.08 4.297-.541 6.204-1.048 3.402 2.624 5.881 6.693 6.18 2.447.179 5.127-.547 7.161-1.68 1.437-.8 4.01-3.048 3.754-4.816.119-.099.238-.197.352-.301 1.604-1.453 2.791-4.607 1.408-6.503 1.692-1.657.756-4.215-1.356-5.331.015-.027.032-.053.042-.086.498-1.891.523-3.777.777-5.696.289-2.17.936-4.306 1.682-6.388 1.393-3.891 3.378-7.609 5.182-11.367 3.027-6.309 6.072-13.266 2.57-19.928-3.181-6.055-10.219-10.872-17.733-12.379zm4.902 69.452c-.483.829-1.256 1.525-2.116 2.075-1.655 1.06-3.744 1.576-5.785 1.668-1.873.084-3.906-.146-5.409-1.186-1.147-.793-1.508-1.93-1.544-3.109.028.027.052.055.083.081 2.143 1.839 5.682 2.2 8.548 1.976 2.156-.171 4.382-.688 6.289-1.634-.022.044-.041.087-.066.129zm2.982-5.257c-.117 1.043-.807 1.992-1.631 2.735-1.912 1.72-4.888 2.515-7.574 2.753-2.48.221-5.264.044-7.359-1.219-.522-.313-.9-.688-1.175-1.101.015-.112.032-.225.05-.335.008-.056-.077-.099-.114-.042-.031.05-.055.097-.084.144-.815-1.474-.393-3.383.093-4.965.3.26.663.498 1.089.709 2.687 1.33 6.215 1.329 9.206 1.074 2.387-.205 5.139-.656 7.204-1.859.17.685.379 1.366.295 2.106zm-12.242-10.722c.008-.043.02-.084.028-.125.054.025.109.046.166.055.859.121 1.966.27 2.484.949.507.666-2.189 1.141-2.53 1.195-.103.016-.201.059-.29.115.013-.727.005-1.458.142-2.189zm1.156-1.201c.124-.729.456-1.397.914-2.039.372.854.783 1.715 1.293 2.498.069.105.142.209.215.313-.652-.441-1.585-.663-2.422-.772zm.658-2.6c.004-.006.007-.01.012-.016.002.006.004.01.007.016-.007 0-.013 0-.019 0zm1.358 1.15c-.081-.222-.168-.442-.258-.663 1.269.87 1.532 2.296 1.771 3.776-.406-1.055-1.122-2.043-1.513-3.113zm-3.487 6.478c.029-.056.053-.116.064-.188.011-.067.018-.136.026-.204.104.145.213.262.331.352-.141.013-.281.029-.421.04zm2.563-.334c.01-.079-.001-.161-.042-.227-.021-.034-.048-.063-.072-.093 1.223-.404 2.352-1.104 2.265-2.309-.003-.041-.013-.08-.019-.12.454.949-.243 1.804-.954 2.519-.399.085-.791.162-1.178.23zm1.437-.282c.529-.469 1.072-1.037 1.186-1.675.086.442.191.88.342 1.296-.5.133-.981.26-1.425.357-.035.008-.069.014-.103.022zm13.335-23.12c-1.753 3.484-3.544 6.961-4.856 10.592-1.275 3.531-2.593 7.923-1.203 11.537-.023-.008-.043-.021-.068-.027-1.1-.278-2.401-.127-3.688.148.029-1.765-.37-4.021-1.609-5.42-.7-1.203-1.967-1.979-3.513-2.38-.202-.849.182-1.217.833-1.982.665-.78 1.34-1.845.329-2.62-.378-.29-.964-.427-1.43-.577-.962-.313-.573-1.596-.568-2.335.012-1.396.133-2.494.62-3.827.761-2.084-.501-2.895-2.634-2.968.488-1.223 2.137-1.913 2.708-3.105.552-1.152-.584-2.431-1.374-3.282-.516-.559-.238-.556.043-1.335.301-.838.652-1.655.896-2.506.336-1.178.467-2.814-.869-3.549-.382-.212-.829.132-.73.48.217.764.503 1.365.439 2.177-.066.819-.43 1.649-.72 2.426-.226.605-1.045 2.07-.385 2.641.485.419.886.893 1.242 1.396.71 1 .166 1.482-.605 2.229-.89.862-1.773 1.719-1.896 2.907-.025.253.276.495.563.483 1.286-.057 2.793-.127 2.451 1.303-.198.826-.592 1.599-.732 2.438-.188 1.122-.001 2.357.007 3.49.007.844-.005 1.27.989 1.607.753.256 2.014.368 1.351 1.557-.284.51-.785.948-1.156 1.413-.377.47-.407.972-.292 1.475-.131.038-.253.094-.338.185-2.127 2.229-3.894 6.09-2.75 8.978.04.099.109.187.194.261-.667.016-1.344.009-2.044-.027-.041-.038-.091-.068-.167-.083-2.027-.392-2.345-2.317-2.541-3.821-.227-1.746-.542-3.216-1.199-4.904-1.546-3.982-3.62-7.804-5.865-11.525-2.188-3.634-4.126-7.135-5-11.192-.832-3.865-.538-7.875.791-11.63 1.332-3.762 3.999-7.446 7.403-10.086 2.983-2.313 6.997-3.259 10.95-3.154 8.291.22 16.377 5.506 19.883 11.783 3.852 6.892-.234 14.422-3.46 20.829z"/><path d="m48.503 68.548c-.603.135-1.178.108-1.749-.113-.391-.153-.655-.479-1.106-.476-.146.002-.287.109-.279.239.032.537.731.764 1.244.93.662.216 1.412.17 2.072-.016.416-.116.247-.658-.182-.564z"/><path d="m48.736 65.056c-.345-.298-.602-.664-.846-1.026-.271-.405-.466-.842-.636-1.285-.161-.421-.206-.788-.584-1.104-.233-.193-.568-.086-.675.153-.344.777.442 1.801.898 2.45.257.365.572.7.901 1.018.162.157.348.293.535.428.188.137.358.063.583.139.193.063.287-.158.181-.268-.161-.167-.156-.33-.357-.505z"/><path d="m48.992 58.723c-.788-1.648-.944-3.279-.917-5.044.002-.21-.365-.253-.427-.05-.534 1.766.279 3.575 1.287 5.114.018.026.071.007.057-.02z"/><path d="m53.608 49.052c-1.865.92-2.001 3.068-1.542 4.675.057.202.454.164.427-.049-.1-.769-.053-1.494.21-2.238.262-.744.882-1.375 1.288-2.061.122-.209-.13-.452-.383-.327z"/><path d="m62.038 53.772c.104-.136-.068-.32-.246-.274-.799.21-1.505.911-2.135 1.366-.813.587-1.553 1.264-2.248 1.952-.026.027.014.06.044.037.753-.54 1.567-1.006 2.34-1.521.702-.47 1.757-.915 2.245-1.56z"/><path d="m64.921 59.808c-1.099-.502-2.826.289-3.857.661-.214.077-.142.359.1.308.576-.123 1.152-.238 1.739-.319.659-.091 1.43.008 2.019-.282.155-.077.165-.292-.001-.368z"/><path d="m62.586 65.275c-.548-.003-1.036-.093-1.548-.254-.521-.163-1.067-.138-1.383-.617-.011-.016-.041-.002-.03.014.252.411.496.791.878 1.125.498.434 1.414.505 2.083.53.6.023.602-.796 0-.798z"/><path d="m59.029 68.647c-.24-.103-.525.168-.301.334.869.648 1.785 1.269 2.615 1.952.493.407 1.254-.254.746-.64-.93-.705-1.954-1.174-3.06-1.646z"/><path d="m29.682 74.801c-1.082-.605-2.379-.193-3.586.001-1.816.292-3.649.614-5.487.788-.235.022-.306.303-.058.366 1.568.402 2.858.367 4.477.21 1.428-.139 3.473.058 4.654-.676.286-.177.31-.515 0-.689z"/><path d="m26.607 66.64c.383-.136.382-.531 0-.667-1.438-.515-3.396-.184-4.952-.254-1.842-.082-3.683-.256-5.441-.752-.103-.029-.159.099-.072.145 1.469.781 3.067 1.282 4.782 1.486 1.677.198 4.098.608 5.683.042z"/><path d="m18.211 53.323c1.297.747 2.53 1.584 3.8 2.366 1.122.691 2.403 1.729 3.869 1.505.277-.042.394-.355.259-.547-.698-.991-2.309-1.405-3.431-1.982-1.381-.71-2.702-1.422-4.21-1.926-.414-.139-.618.393-.287.584z"/><path d="m25.401 42.107c.76.864 1.889 2.446 3.309 2.42.297-.005.443-.264.321-.479-.325-.577-1.013-.893-1.544-1.323-.627-.513-1.174-1.101-1.726-1.671-1.05-1.086-2.029-2.119-3.57-2.689-.207-.076-.47.146-.264.293 1.364.971 2.416 2.244 3.474 3.449z"/><path d="m34.96 34.823c.268-1.016-.381-1.925-.866-2.832-.674-1.264-1.476-2.446-2.225-3.675-.137-.225-.505-.063-.454.165.281 1.243.762 2.356 1.315 3.526.466.984.686 2.207 1.606 2.958.196.158.561.1.624-.142z"/><path d="m43.94 30.663c.195.072.403.077.564-.062.66-.569.225-1.352.055-2.047-.263-1.082-.487-2.188-.625-3.287-.068-.543-.939-.552-.993 0-.106 1.062-.097 2.08.059 3.137.109.732.025 1.922.94 2.259z"/><path d="m55.57 30.492c.73-.979.548-2.301.685-3.426.16-1.323.199-2.426-.148-3.729-.034-.129-.261-.125-.299 0-.41 1.338-.743 2.646-1.022 4.009-.216 1.058-.585 2.177.087 3.146.16.23.535.218.697 0z"/><path d="m65.147 33.776c1.24-.879 1.809-2.974 2.316-4.258.667-1.688 1.188-3.419 1.355-5.198.03-.329-.603-.403-.672-.078-.358 1.689-1.062 3.282-1.866 4.85-.664 1.292-2.06 2.949-1.982 4.382.021.392.515.537.849.302z"/><path d="m80.046 28.948c-1.123 1.319-2.244 2.65-3.224 4.052-.846 1.209-2.218 2.82-2.183 4.264.009.366.49.504.795.282 1.246-.909 1.785-2.729 2.525-3.976.865-1.458 1.634-2.955 2.515-4.407.152-.247-.242-.434-.428-.215z"/><path d="m87.248 35.356c-1.513.866-2.532 2.355-3.61 3.577-.74.838-1.522 1.647-2.291 2.468-.564.606-.963.878-.828 1.657.03.182.278.316.479.312 1.62-.022 2.799-2.401 3.556-3.423 1.03-1.392 2.347-2.919 2.721-4.574 0-.012-.013-.025-.027-.017z"/><path d="m88.188 47.872c1.025-.914 2.156-1.75 3.213-2.634.066-.057.042-.139-.026-.181-.058-.035-.126-.085-.2-.13.048-.021.094-.047.141-.075.02-.011.002-.036-.018-.025-.052.025-.102.052-.153.079-.084-.049-.174-.09-.263-.095-.067-.004-.076.071-.031.1.064.041.127.055.186.051-1.163.591-2.29 1.237-3.345 1.986-.991.702-2.444 1.698-2.665 2.849-.056.288.262.555.593.391 1.034-.513 1.742-1.581 2.568-2.316z"/><path d="m102.354 53.572c-2.287-.071-4.507.22-6.7.784-1.391.358-4.733 1.51-4.028 3.21.077.187.296.323.534.26.678-.177 1.067-.653 1.549-1.074.821-.717 2.046-1.104 3.127-1.424 1.864-.553 3.833-.731 5.58-1.559.112-.052.058-.192-.062-.197z"/><path d="m100.905 65.598c-2.222-.723-4.821-.463-7.131-.218-1.354.144-5.068.615-5.143 2.188-.008.166.146.354.342.387.797.129 1.277-.328 1.995-.588 1.09-.395 2.312-.602 3.469-.789 2.147-.345 4.407-.155 6.468-.827.088-.029.088-.125 0-.153z"/><path d="m86.61 75.492c-.373-.06-.604.355-.264.537 2.778 1.473 6.088 2.514 9.379 2.287.019 0 .025-.026.004-.03-3.265-.403-5.932-2.272-9.119-2.794z"/></g></svg>